<?xml version="1.0" encoding="UTF-8" standalone="no"?>
<!DOCTYPE svg PUBLIC "-//W3C//DTD SVG 1.1//EN" "http://www.w3.org/Graphics/SVG/1.1/DTD/svg11.dtd">
<svg xmlns="http://www.w3.org/2000/svg" version="1.1" viewBox="0.00 0.00 1400.00 1400.00">
<path fill="#2c292f" d="
  M 329.28 620.57
  A 0.43 0.43 0.0 0 0 328.44 620.42
  C 327.33 624.16 328.73 627.44 326.80 631.31
  Q 322.28 640.38 319.04 649.98
  Q 318.72 650.93 316.91 652.23
  Q 316.51 652.52 316.02 652.52
  Q 313.87 652.50 311.76 652.34
  C 223.51 645.51 133.48 614.53 72.16 547.09
  Q 68.57 543.14 64.75 537.67
  A 1.52 1.50 -61.3 0 1 64.49 536.76
  Q 64.57 534.55 65.22 533.27
  C 117.07 431.05 169.14 328.89 222.85 227.64
  Q 233.60 207.37 245.49 187.75
  C 255.67 170.97 270.75 153.81 289.05 146.39
  Q 425.70 90.96 560.87 34.28
  A 2.97 2.95 -38.9 0 1 563.70 34.57
  Q 568.94 38.18 574.60 41.13
  C 606.70 57.82 640.94 66.64 677.06 67.83
  C 733.17 69.67 788.55 66.09 836.78 34.21
  A 1.02 1.01 -51.2 0 1 837.69 34.11
  Q 863.42 43.89 893.55 56.72
  C 959.13 84.65 1029.89 113.20 1098.19 141.30
  C 1105.66 144.37 1114.25 147.05 1120.57 150.90
  C 1136.27 160.47 1149.13 177.62 1158.12 193.61
  Q 1176.65 226.55 1194.09 260.11
  Q 1261.80 390.50 1328.31 521.51
  C 1330.90 526.61 1333.40 531.07 1335.26 536.71
  A 1.73 1.73 0.0 0 1 1335.02 538.27
  C 1333.81 539.95 1332.55 541.87 1331.15 543.42
  C 1278.63 601.48 1206.45 634.63 1130.54 646.75
  Q 1110.38 649.98 1090.06 652.16
  C 1085.48 652.65 1082.43 653.77 1080.43 648.44
  C 1074.71 633.22 1072.34 623.23 1068.83 605.72
  Q 1068.67 604.95 1068.53 605.72
  Q 1068.40 606.45 1068.53 607.25
  C 1069.79 614.86 1071.73 622.24 1071.48 630.25
  C 1069.85 683.82 1068.99 732.27 1071.59 790.69
  Q 1074.88 864.66 1082.86 961.57
  Q 1095.71 1117.45 1111.74 1261.75
  Q 1115.61 1296.61 1117.08 1311.88
  C 1117.33 1314.46 1117.99 1316.98 1114.76 1317.79
  Q 1027.84 1339.39 934.52 1351.43
  Q 828.59 1365.11 721.81 1368.32
  C 708.37 1368.73 695.28 1368.89 681.50 1368.48
  C 549.73 1364.56 417.06 1349.87 288.75 1318.99
  Q 285.96 1318.32 282.86 1317.04
  A 1.79 1.78 14.7 0 1 281.77 1315.18
  C 300.09 1153.84 315.96 991.85 325.87 829.68
  Q 331.14 743.42 329.42 674.31
  C 328.87 652.40 327.97 635.94 329.28 620.57
  Z
  M 874.75 57.39
  L 836.89 40.77
  A 0.59 0.59 0.0 0 0 836.35 40.81
  C 784.24 73.97 720.68 77.58 660.58 72.79
  C 627.22 70.13 595.13 61.55 566.06 44.90
  C 564.37 43.93 563.01 42.82 561.82 41.42
  A 2.12 2.11 -31.3 0 0 559.41 40.84
  L 518.97 57.45
  Q 517.26 58.15 518.79 59.19
  C 525.84 63.99 533.39 69.55 540.41 73.60
  Q 577.27 94.89 619.83 103.64
  C 705.89 121.34 802.92 112.90 874.81 57.92
  Q 875.23 57.60 874.75 57.39
  Z
  M 288.64 1312.51
  Q 291.71 1313.50 294.52 1314.17
  C 412.46 1342.55 533.91 1356.42 654.93 1361.96
  Q 689.47 1363.54 716.00 1362.76
  Q 830.54 1359.42 949.98 1343.11
  Q 1028.70 1332.37 1105.95 1313.81
  Q 1108.35 1313.24 1110.49 1312.53
  A 1.53 1.53 0.0 0 0 1111.51 1310.79
  Q 1109.81 1301.82 1108.81 1292.77
  Q 1089.61 1119.47 1075.50 945.67
  C 1070.13 879.59 1065.29 807.38 1063.81 739.25
  Q 1062.72 689.32 1065.45 623.58
  C 1065.70 617.45 1067.05 606.22 1066.47 597.39
  C 1065.78 586.84 1060.57 577.39 1059.88 567.01
  Q 1059.40 559.85 1059.67 549.93
  C 1060.95 502.67 1063.81 455.47 1067.19 408.32
  C 1071.09 353.90 1076.52 299.73 1085.11 245.82
  C 1089.85 216.09 1096.21 184.47 1107.62 156.04
  C 1107.95 155.22 1108.99 154.32 1109.21 153.18
  Q 1109.31 152.69 1108.84 152.50
  C 1040.32 124.68 964.57 92.79 882.49 60.02
  Q 880.52 59.23 878.35 58.95
  Q 877.83 58.89 877.49 59.29
  Q 875.83 61.27 873.04 63.29
  C 835.65 90.31 793.18 105.81 747.76 111.76
  C 675.18 121.27 594.53 110.81 532.17 72.34
  Q 522.78 66.54 515.46 60.07
  Q 515.08 59.73 514.61 59.95
  Q 510.18 62.02 505.66 63.87
  Q 403.75 105.60 302.08 147.94
  Q 295.86 150.53 290.28 151.83
  Q 288.59 152.22 289.15 153.85
  Q 303.83 196.55 310.92 240.97
  C 326.32 337.49 332.49 437.62 336.47 536.00
  C 336.86 545.59 337.92 561.48 335.67 573.02
  C 334.12 580.96 331.87 587.50 332.80 595.82
  C 333.32 600.52 333.37 606.55 333.56 609.98
  C 337.24 678.93 336.74 748.22 333.15 815.68
  C 325.28 963.50 309.13 1126.93 293.14 1271.18
  Q 290.87 1291.63 288.23 1311.87
  A 0.60 0.60 0.0 0 0 288.64 1312.51
  Z
  M 162.96 607.53
  C 209.37 630.23 258.91 641.30 309.92 645.74
  Q 310.43 645.79 310.58 645.30
  C 317.26 623.91 324.19 602.63 330.32 581.07
  C 333.33 570.46 333.82 562.44 333.40 551.81
  Q 332.16 520.27 330.71 488.74
  C 329.82 469.38 328.27 449.95 327.22 430.54
  C 325.45 397.75 321.85 365.15 319.14 332.32
  Q 317.56 313.27 311.16 266.51
  C 306.14 229.89 299.05 191.13 285.77 154.98
  A 0.78 0.78 0.0 0 0 284.59 154.61
  C 267.44 166.59 254.58 182.67 244.27 200.76
  Q 231.65 222.92 219.72 245.46
  C 174.68 330.54 136.54 404.85 78.82 518.57
  Q 75.13 525.83 71.04 532.84
  Q 69.50 535.47 70.74 537.00
  Q 83.72 553.09 105.23 571.03
  Q 129.17 591.01 162.96 607.53
  Z
  M 1086.89 646.09
  C 1105.51 644.24 1124.20 641.39 1142.34 637.98
  C 1211.60 624.98 1279.73 591.08 1325.91 536.92
  Q 1326.26 536.51 1326.22 535.98
  Q 1326.10 533.87 1325.02 531.74
  C 1268.35 419.58 1215.47 314.94 1157.25 208.53
  C 1145.25 186.61 1132.41 169.56 1112.84 155.02
  A 1.19 1.18 39.8 0 0 1111.27 155.16
  Q 1110.65 155.82 1110.09 157.33
  Q 1098.59 188.48 1092.62 221.18
  Q 1084.74 264.36 1079.95 308.00
  C 1073.07 370.74 1068.91 428.60 1065.58 492.28
  C 1064.41 514.75 1062.54 541.03 1062.77 557.75
  Q 1062.92 568.76 1064.21 573.26
  Q 1074.57 609.40 1085.62 645.24
  A 1.21 1.21 0.0 0 0 1086.89 646.09
  Z"
/>
</svg>
