<?xml version="1.0" encoding="UTF-8" standalone="no"?>
<!DOCTYPE svg PUBLIC "-//W3C//DTD SVG 1.1//EN" "http://www.w3.org/Graphics/SVG/1.1/DTD/svg11.dtd">
<svg xmlns="http://www.w3.org/2000/svg" version="1.1" viewBox="0.00 0.00 1400.00 1400.00">
<path fill="#2a282f" d="
  M 481.44 1304.44
  A 0.64 0.64 0.0 0 1 480.83 1303.79
  C 483.20 1171.52 484.29 1039.22 485.85 906.94
  C 487.18 794.32 488.72 681.68 489.49 569.06
  C 489.83 519.56 490.77 470.26 489.92 420.75
  Q 489.72 408.70 489.87 400.75
  C 491.72 306.46 508.28 210.50 556.36 127.89
  Q 562.86 116.72 574.92 100.93
  Q 577.29 97.83 580.49 98.32
  Q 589.60 99.74 598.74 101.05
  C 663.32 110.32 723.50 139.98 775.52 176.73
  C 796.47 191.54 810.99 209.31 824.54 231.21
  Q 850.97 273.94 867.03 319.08
  C 897.95 405.99 912.87 501.05 913.20 593.07
  C 913.38 641.70 914.24 684.32 914.31 729.93
  C 914.38 781.53 915.32 833.15 915.81 884.75
  Q 917.81 1094.63 919.15 1304.52
  Q 919.15 1305.02 918.65 1305.02
  C 783.35 1304.10 648.05 1304.92 512.75 1304.52
  C 502.34 1304.49 491.93 1304.94 481.44 1304.44
  Z
  M 578.19 106.44
  Q 575.21 111.25 568.95 119.44
  Q 568.71 119.76 569.11 119.74
  Q 596.14 118.54 621.52 125.70
  Q 657.45 135.83 692.80 151.98
  Q 746.22 176.38 797.19 205.55
  Q 799.77 207.03 805.40 211.68
  Q 805.51 211.77 805.60 211.74
  Q 805.66 211.72 805.70 211.67
  Q 805.80 211.55 805.63 211.37
  Q 791.56 196.44 778.29 186.72
  C 721.12 144.84 652.48 110.95 580.48 104.96
  Q 579.17 104.85 578.19 106.44
  Z
  M 488.14 1298.70
  L 673.04 1298.70
  Q 673.53 1298.70 673.53 1298.21
  L 673.20 684.58
  A 1.09 1.09 0.0 0 0 672.08 683.49
  L 558.50 685.62
  Q 557.44 685.64 557.40 684.54
  Q 555.98 643.92 553.85 604.80
  C 549.46 523.97 545.06 443.11 541.46 362.24
  C 541.14 355.19 541.06 347.10 542.07 341.32
  C 549.18 300.40 569.72 262.03 607.51 241.98
  C 626.42 231.94 645.60 227.81 666.85 226.25
  Q 667.46 226.21 667.47 225.60
  Q 668.35 186.95 686.59 153.09
  A 0.75 0.75 0.0 0 0 686.22 152.04
  C 650.52 137.14 611.39 121.01 571.94 122.79
  C 570.74 122.84 567.34 122.19 566.27 123.78
  Q 553.94 142.08 542.41 167.97
  C 507.75 245.86 495.49 334.97 496.18 419.56
  C 496.33 437.33 497.01 453.84 496.94 470.31
  C 496.72 526.52 495.89 582.74 494.96 638.93
  C 493.92 701.84 493.90 764.78 493.02 827.69
  C 490.84 984.37 489.51 1141.07 487.20 1297.75
  Q 487.19 1298.70 488.14 1298.70
  Z
  M 729.62 239.48
  C 761.91 252.81 786.29 277.93 799.18 310.52
  C 806.31 328.58 810.22 347.16 809.48 366.68
  Q 808.43 394.03 806.53 421.33
  C 804.91 444.65 804.05 468.01 802.53 491.34
  C 801.22 511.37 800.32 531.42 799.22 551.46
  C 796.84 594.74 794.08 637.67 791.64 680.75
  Q 791.62 681.24 791.12 681.25
  Q 747.52 681.81 703.94 682.51
  Q 690.45 682.73 677.39 683.64
  A 1.22 1.22 0.0 0 0 676.25 684.90
  C 677.03 710.79 677.25 736.81 677.25 762.76
  Q 677.25 1029.54 677.25 1296.32
  A 1.79 1.78 -32.2 0 1 677.07 1297.10
  L 676.68 1297.91
  Q 676.36 1298.59 677.11 1298.60
  Q 691.68 1298.96 706.25 1298.89
  Q 809.47 1298.40 912.50 1299.44
  A 0.68 0.67 -89.6 0 0 913.18 1298.76
  C 911.98 1178.32 911.52 1057.82 910.00 937.31
  Q 908.64 829.32 908.16 721.31
  C 908.07 702.27 907.49 676.32 907.55 652.51
  Q 907.69 598.15 905.87 558.19
  Q 902.99 494.83 890.08 426.44
  C 877.26 358.52 855.31 293.09 818.58 235.13
  C 811.43 223.86 805.38 214.05 797.50 209.45
  Q 745.77 179.28 690.98 154.39
  Q 689.50 153.72 688.75 155.17
  Q 677.21 177.42 672.49 202.99
  Q 671.62 207.73 670.20 225.53
  Q 670.17 226.01 670.64 226.05
  C 691.81 228.15 710.01 231.39 729.62 239.48
  Z
  M 561.44 682.45
  C 575.25 682.71 591.17 681.78 602.75 681.69
  Q 644.85 681.36 686.94 679.98
  C 719.86 678.90 752.85 678.65 785.71 678.46
  Q 788.40 678.45 788.55 675.76
  Q 796.85 524.64 805.81 373.32
  Q 806.41 363.09 806.27 358.15
  C 805.28 323.40 790.92 291.09 766.76 267.11
  C 743.97 244.49 712.96 233.92 681.70 230.19
  C 656.44 227.17 631.01 232.81 608.69 244.95
  C 573.61 264.02 554.70 298.40 546.27 336.25
  C 543.15 350.25 544.90 366.07 545.64 380.31
  C 548.68 438.89 551.45 497.52 554.82 556.07
  C 557.23 597.97 558.78 639.94 560.84 681.86
  A 0.61 0.61 0.0 0 0 561.44 682.45
  Z"
/>
</svg>
