<?xml version="1.0" encoding="UTF-8" standalone="no"?>
<!DOCTYPE svg PUBLIC "-//W3C//DTD SVG 1.1//EN" "http://www.w3.org/Graphics/SVG/1.1/DTD/svg11.dtd">
<svg xmlns="http://www.w3.org/2000/svg" version="1.1" viewBox="0.00 0.00 1400.00 1400.00">
<path fill="#1c1b1e" d="
  M 325.88 633.84
  C 323.21 640.48 321.30 648.02 317.25 654.13
  Q 316.95 654.58 316.42 654.64
  Q 312.11 655.08 306.18 654.57
  C 250.09 649.71 193.66 634.39 144.52 606.49
  Q 106.18 584.72 74.00 550.75
  C 70.25 546.79 62.97 540.05 65.14 535.53
  C 73.94 517.30 83.55 499.55 92.69 481.50
  Q 150.62 367.05 210.23 253.46
  Q 225.97 223.47 237.92 202.18
  C 249.15 182.17 265.91 157.74 287.83 148.87
  C 381.95 110.79 471.84 73.10 561.27 35.89
  A 1.22 1.20 43.9 0 1 562.18 35.88
  Q 563.72 36.50 564.34 36.89
  C 597.84 58.31 641.34 69.25 680.65 69.61
  C 699.79 69.78 719.76 70.31 734.24 68.99
  C 766.88 66.01 805.33 56.34 832.89 37.87
  Q 834.83 36.57 837.06 35.87
  Q 837.55 35.72 838.01 35.92
  Q 958.06 86.66 1078.81 135.70
  C 1079.34 135.92 1080.32 135.62 1081.05 135.92
  Q 1095.38 141.72 1109.67 147.63
  C 1131.75 156.76 1148.04 178.21 1159.58 198.68
  C 1178.55 232.32 1196.42 266.50 1214.19 300.78
  Q 1268.82 406.16 1332.00 530.50
  C 1333.44 533.34 1336.52 538.52 1334.24 541.25
  C 1274.11 613.37 1181.78 646.47 1090.34 654.68
  C 1087.54 654.94 1084.91 655.49 1082.20 654.41
  A 1.25 1.22 85.5 0 1 1081.56 653.85
  C 1078.17 647.70 1076.30 640.86 1073.57 634.39
  C 1072.47 631.78 1072.45 629.05 1071.56 626.28
  A 0.44 0.43 -17.4 0 0 1071.01 626.00
  Q 1070.88 626.04 1070.74 626.09
  A 0.11 0.10 -23.5 0 0 1070.68 626.24
  Q 1071.93 628.86 1071.82 631.75
  C 1069.49 693.13 1069.10 748.72 1072.85 815.49
  C 1082.08 980.07 1099.07 1152.67 1116.57 1307.65
  C 1116.90 1310.58 1116.71 1313.94 1117.08 1316.94
  A 1.77 1.77 0.0 0 1 1115.87 1318.84
  Q 1106.32 1321.93 1098.60 1323.73
  C 1008.15 1344.80 915.85 1357.57 823.32 1364.90
  C 758.94 1370.00 700.53 1371.18 636.69 1368.59
  Q 570.43 1365.90 487.23 1356.17
  Q 397.71 1345.71 306.42 1325.13
  Q 292.67 1322.03 282.67 1318.91
  A 0.72 0.72 0.0 0 1 282.17 1318.17
  Q 283.02 1305.82 284.35 1293.93
  C 300.17 1152.37 313.85 1010.55 323.64 868.43
  C 329.02 790.34 331.25 712.32 328.24 634.25
  A 1.22 1.22 0.0 0 0 325.88 633.84
  Z
  M 865.61 63.08
  Q 866.98 58.02 868.58 53.41
  A 1.39 1.39 0.0 0 0 867.80 51.68
  L 838.49 39.49
  A 0.39 0.39 0.0 0 0 837.95 39.79
  C 836.02 51.98 831.95 62.44 825.75 74.72
  C 802.59 120.62 766.14 148.79 714.45 155.12
  C 694.67 157.54 673.93 154.65 654.99 148.74
  C 622.64 138.65 595.64 114.63 578.94 85.31
  C 571.04 71.45 563.37 55.90 561.08 39.98
  A 0.53 0.53 0.0 0 0 560.35 39.56
  L 531.03 51.77
  A 1.36 1.36 0.0 0 0 530.35 53.66
  Q 530.79 54.47 531.23 56.11
  Q 534.30 67.57 538.38 78.68
  C 561.55 141.72 614.99 179.26 681.25 185.00
  C 767.25 192.45 842.25 148.88 865.61 63.08
  Z
  M 790.95 117.09
  C 810.15 98.97 825.77 73.09 833.24 47.76
  A 0.59 0.59 0.0 0 0 832.39 47.08
  C 799.28 65.74 762.35 74.79 723.77 75.87
  Q 703.60 76.43 677.94 75.82
  C 638.03 74.88 600.96 66.44 566.46 46.98
  A 0.31 0.31 0.0 0 0 566.00 47.22
  Q 565.93 48.02 566.21 48.88
  C 587.96 116.11 646.62 163.02 720.09 151.37
  Q 761.59 144.79 790.95 117.09
  Z
  M 291.00 154.04
  C 311.65 214.36 319.42 278.59 325.38 341.76
  Q 335.09 444.56 338.75 547.75
  C 339.07 556.62 339.45 567.34 336.81 576.20
  Q 333.77 586.44 332.22 595.74
  C 331.85 597.99 333.00 599.95 333.11 602.02
  Q 339.27 718.75 332.20 835.44
  C 322.52 995.17 306.81 1154.87 288.54 1313.76
  A 1.10 1.10 0.0 0 0 289.37 1314.95
  C 408.92 1343.81 533.07 1358.28 653.58 1363.73
  C 692.76 1365.50 732.43 1364.51 774.75 1361.98
  C 889.26 1355.14 998.16 1341.98 1108.27 1315.33
  Q 1109.68 1314.99 1111.05 1313.99
  Q 1111.48 1313.68 1111.40 1313.16
  Q 1110.03 1304.09 1109.74 1301.50
  C 1092.57 1148.06 1077.45 994.18 1068.03 840.06
  C 1063.89 772.30 1062.45 711.76 1064.71 644.57
  Q 1065.42 623.66 1066.05 602.74
  C 1066.14 599.81 1067.64 597.84 1067.36 594.76
  C 1066.46 584.75 1061.92 575.67 1061.28 567.00
  Q 1060.92 562.16 1061.48 546.19
  C 1064.88 449.42 1071.53 349.45 1085.24 256.75
  Q 1090.30 222.57 1098.72 189.07
  C 1101.46 178.18 1105.62 166.55 1109.20 155.28
  Q 1109.37 154.73 1108.84 154.52
  L 871.37 56.81
  A 0.58 0.58 0.0 0 0 870.59 57.21
  Q 866.51 73.01 860.32 88.14
  C 824.54 175.69 726.78 205.66 641.30 180.53
  C 588.17 164.91 548.59 124.70 532.61 71.79
  Q 530.43 64.56 528.34 57.24
  Q 528.19 56.70 527.68 56.92
  Q 510.79 64.08 478.32 77.08
  Q 442.95 91.24 311.80 145.65
  C 304.91 148.51 297.99 150.99 291.21 153.59
  Q 290.88 153.72 291.00 154.04
  Z
  M 256.19 637.06
  Q 283.86 642.31 311.83 645.73
  A 0.44 0.43 -77.7 0 0 312.29 645.43
  Q 323.14 612.36 332.87 578.88
  C 334.48 573.33 335.29 567.24 335.31 562.00
  C 335.47 530.08 332.70 497.17 331.15 464.80
  C 330.16 444.12 328.40 423.46 327.05 402.79
  C 325.96 385.96 324.07 368.74 322.86 351.68
  Q 321.52 332.89 314.44 277.95
  C 310.24 245.28 305.18 212.18 296.06 180.47
  C 293.95 173.14 290.57 163.58 288.05 154.99
  A 0.66 0.66 0.0 0 0 287.08 154.61
  C 268.94 165.51 255.34 183.80 244.67 202.93
  Q 227.39 233.93 210.92 265.37
  Q 140.56 399.60 72.19 534.85
  Q 71.95 535.31 72.08 535.81
  C 72.69 538.33 74.48 539.26 75.82 540.77
  Q 82.38 548.16 89.62 554.88
  C 136.61 598.45 193.39 625.12 256.19 637.06
  Z
  M 1088.22 644.63
  Q 1089.16 645.05 1089.54 645.01
  Q 1121.51 642.10 1152.90 635.58
  C 1220.12 621.63 1281.34 588.62 1327.52 537.42
  Q 1327.85 537.05 1327.79 536.57
  Q 1327.36 533.02 1325.73 529.79
  C 1274.59 428.52 1223.23 327.17 1169.47 227.27
  C 1154.31 199.09 1139.49 169.82 1112.90 154.87
  Q 1112.51 154.66 1112.36 155.08
  Q 1098.46 194.76 1091.84 236.32
  C 1075.99 335.88 1069.44 437.35 1065.31 538.00
  C 1064.74 551.92 1063.42 564.04 1066.77 575.61
  Q 1076.77 610.17 1087.83 644.20
  A 0.72 0.72 0.0 0 0 1088.22 644.63
  Z"
/>
</svg>
