<?xml version="1.0" encoding="UTF-8" standalone="no"?>
<!DOCTYPE svg PUBLIC "-//W3C//DTD SVG 1.1//EN" "http://www.w3.org/Graphics/SVG/1.1/DTD/svg11.dtd">
<svg xmlns="http://www.w3.org/2000/svg" version="1.1" viewBox="0.00 0.00 1400.00 1400.00">
<path fill="#2a282f" d="
  M 905.60 1304.61
  C 764.27 1305.02 629.12 1304.21 481.33 1305.01
  Q 480.81 1305.01 480.82 1304.50
  C 482.36 1085.27 483.98 933.22 485.41 747.56
  Q 486.05 665.78 486.89 584.00
  C 487.31 543.32 491.31 502.47 497.67 459.94
  Q 506.55 400.61 527.15 335.68
  Q 545.70 277.23 579.75 224.51
  Q 593.07 203.89 609.66 188.16
  Q 615.01 183.08 631.81 171.56
  C 680.17 138.38 736.30 111.60 794.58 102.18
  Q 806.50 100.25 818.45 98.46
  Q 822.60 97.84 824.52 100.21
  Q 833.86 111.76 841.48 124.49
  C 898.42 219.65 912.78 333.16 909.80 442.32
  C 908.65 484.45 910.25 526.68 910.47 568.81
  Q 910.70 612.28 911.24 655.75
  Q 914.48 919.22 917.30 1182.69
  Q 917.94 1242.94 919.19 1303.32
  A 1.09 1.08 -4.5 0 1 918.25 1304.41
  C 914.02 1304.98 908.85 1304.60 905.60 1304.61
  Z
  M 820.49 104.99
  Q 820.10 104.72 819.62 104.77
  C 744.09 111.76 675.46 146.69 615.30 191.55
  Q 609.91 195.56 595.06 210.72
  Q 594.99 210.80 595.03 210.89
  Q 595.08 210.99 595.24 211.05
  Q 595.30 211.06 595.34 211.03
  Q 601.01 206.47 608.49 202.28
  C 658.87 174.03 709.93 147.54 764.35 129.96
  C 787.62 122.44 806.57 119.05 830.70 119.67
  Q 831.26 119.69 830.92 119.24
  Q 825.93 112.76 821.35 105.86
  Q 820.99 105.32 820.49 104.99
  Z
  M 733.25 226.33
  C 772.86 228.31 812.21 245.54 834.21 279.80
  C 847.54 300.56 859.90 331.31 858.82 356.50
  Q 856.11 419.64 848.61 558.83
  C 846.36 600.69 844.00 642.66 842.45 684.49
  A 1.20 1.20 0.0 0 1 841.23 685.64
  L 728.26 683.47
  Q 726.99 683.45 727.00 684.72
  C 727.04 687.88 726.74 691.35 726.74 694.42
  Q 726.78 944.30 726.72 1194.18
  C 726.71 1228.67 726.24 1263.13 726.24 1297.31
  Q 726.24 1298.75 727.67 1298.75
  L 912.06 1298.61
  Q 912.81 1298.61 912.79 1297.87
  C 911.81 1251.16 911.18 1204.77 910.83 1158.69
  C 909.65 1001.85 907.07 845.02 905.60 688.19
  C 904.92 615.62 903.60 542.79 903.03 470.50
  Q 902.96 461.43 903.32 450.51
  Q 904.86 402.68 902.51 365.50
  C 897.29 283.06 878.68 196.73 834.97 125.49
  C 834.50 124.71 833.47 123.86 832.81 123.18
  A 1.23 1.22 -20.8 0 0 831.98 122.81
  Q 813.42 121.94 801.99 123.74
  C 772.48 128.38 742.16 140.26 713.95 151.97
  Q 713.02 152.36 713.50 153.24
  C 725.90 176.02 731.33 199.71 732.66 225.75
  A 0.62 0.61 0.0 0 0 733.25 226.33
  Z
  M 608.27 680.69
  C 606.60 647.19 604.33 621.77 603.10 592.31
  C 602.24 571.62 600.58 550.98 599.63 530.30
  C 597.11 475.75 592.76 421.26 590.48 366.69
  C 588.48 318.85 614.31 269.91 656.20 246.22
  C 678.91 233.38 703.86 228.58 729.38 226.04
  Q 729.85 225.99 729.81 225.52
  C 729.09 217.69 728.57 209.21 727.25 202.04
  Q 722.69 177.26 711.06 154.74
  Q 710.79 154.21 710.20 154.33
  Q 708.09 154.75 704.95 156.22
  Q 655.82 179.34 617.51 200.77
  C 609.77 205.10 599.23 210.31 593.80 217.31
  Q 583.83 230.16 574.18 246.69
  C 537.64 309.23 516.52 379.33 505.40 452.18
  C 497.76 502.31 493.50 550.03 492.96 597.81
  C 491.22 751.47 491.02 905.16 488.75 1058.82
  Q 488.60 1068.89 488.55 1078.82
  Q 488.00 1188.45 486.76 1298.84
  A 0.56 0.56 0.0 0 0 487.33 1299.40
  Q 604.52 1298.36 721.73 1298.84
  Q 723.23 1298.85 723.04 1297.36
  Q 722.99 1296.98 722.99 1295.75
  Q 722.72 1018.78 722.98 741.81
  Q 723.01 713.14 723.69 684.97
  A 1.33 1.33 0.0 0 0 722.44 683.61
  Q 713.59 683.11 705.93 682.95
  Q 657.38 681.93 608.81 681.22
  Q 608.29 681.21 608.27 680.69
  Z
  M 612.58 678.12
  Q 614.58 678.55 616.75 678.57
  C 644.62 678.86 672.57 678.73 700.42 679.64
  Q 743.42 681.06 786.44 681.47
  C 803.24 681.63 820.45 682.41 837.66 682.57
  Q 839.22 682.58 839.27 681.03
  C 841.36 618.36 845.67 555.65 848.43 493.05
  C 850.37 449.11 853.14 405.19 855.33 361.26
  Q 855.99 347.99 854.46 339.53
  Q 850.81 319.32 840.23 297.25
  Q 821.00 257.15 780.21 239.54
  C 760.83 231.18 738.91 227.54 717.82 230.25
  C 685.00 234.47 654.10 245.26 630.86 269.47
  Q 604.60 296.83 596.39 334.72
  C 593.27 349.14 593.35 362.48 594.40 377.91
  C 599.50 453.04 602.75 528.31 607.47 603.46
  C 609.00 628.00 610.03 652.57 611.67 677.07
  A 1.17 1.16 4.4 0 0 612.58 678.12
  Z"
/>
</svg>
